<svg xmlns:xlink="http://www.w3.org/1999/xlink" xmlns="http://www.w3.org/2000/svg" viewBox="0 0 122.5 32.78" class="s-card-links__ico-product s-card-links__ico-product--shop" width="123"  height="33" >
                            <path fill="#29004F" d="M9.42 15.29a8.374 8.374 0 00-3.44-.8c-.66-.03-1.32.12-1.89.46-.43.26-.68.73-.66 1.23 0 1.43 2.18 1.83 4.1 2.72 1.52.69 2.84 1.66 2.84 3.64.05 1.36-.58 2.66-1.69 3.47-1.3.87-2.84 1.31-4.41 1.26-1.46.04-2.91-.22-4.27-.75L.34 24c1.18.56 2.47.86 3.78.86.8.03 1.59-.16 2.29-.54.52-.3.83-.86.8-1.46 0-1.43-2.18-1.83-4.04-2.75C1.68 19.4.28 18.39.28 16.33c-.05-1.17.46-2.3 1.37-3.03 1.2-.89 2.66-1.34 4.15-1.26 1.38-.01 2.74.29 3.98.89l-.36 2.36zM12.97 9.93V6.72h3.21v3.21h-3.21zm0 16.91v-14.3h3.21v14.29l-3.21.01zM38.45 26.84v-7.7c.09-1.11-.1-2.23-.57-3.24a2.753 2.753 0 00-2.61-1.2c-1.22.01-2.42.31-3.49.89.31.82.46 1.7.43 2.58v8.68H29v-7.7c.09-1.11-.1-2.23-.57-3.24a2.715 2.715 0 00-2.58-1.2c-1.06.02-2.11.14-3.15.34v11.8h-3.21V12.89c2.17-.53 4.39-.82 6.62-.86a6.03 6.03 0 014.15 1.26c1.75-.85 3.67-1.28 5.61-1.26a5.4 5.4 0 014.47 1.75 6.455 6.455 0 011.32 4.38v8.68h-3.21zM63.79 22.37c0 1.83.72 2.2 1.66 2.2.36.01.72-.05 1.06-.17l.54 2.49c-.77.26-1.57.38-2.38.37-1.66 0-4.1-.66-4.1-4.78V6.53l3.21-.49.01 16.33zM77.9 12.39a7.683 7.683 0 00-9.66 4.99c-1.29 4.05.94 8.37 4.99 9.66a7.683 7.683 0 009.58-9.89 6.584 6.584 0 01-4.91-4.76zm-2.3 11.76c-2.46 0-4.46-2-4.46-4.46s2-4.46 4.46-4.46 4.46 2 4.46 4.46c.01 2.46-1.99 4.46-4.46 4.46zM50.01 12c-1.89 0-3.72.66-5.17 1.87l-.24.2v18.71h2.79v-5.84c.84.29 1.72.44 2.61.44 4.25.12 7.79-3.23 7.9-7.47s-3.23-7.79-7.47-7.9c-.14-.01-.28-.01-.42-.01zm0 12.67c-.92 0-1.82-.24-2.61-.7v-8.56c.79-.46 1.69-.7 2.61-.7a4.982 4.982 0 01.28 9.96h-.28z"></path><g transform="translate(80.218)" fill="#FF0059"><circle cx="25.21" cy="7.45" r="2.85" fill="#FF0059"></circle><path d="M37.33 7.48a3.075 3.075 0 00-3.11-3.02c-.56 0-1.1.15-1.58.42v5.19c.48.28 1.03.43 1.58.42 1.69.03 3.09-1.32 3.11-3.01z" fill="#FF0059"></path><path d="M36.12 0H13.66v3.21c.71-.19 1.44-.29 2.17-.31 1.01-.07 2 .27 2.76.94.64.76.96 1.73.89 2.72v5.19h-1.9V7.16c.07-.71-.08-1.43-.45-2.05-.44-.46-1.08-.69-1.71-.62-.6.02-1.19.11-1.76.27v6.98h-1.92V0H0v8.86c0 3.4 2.75 6.15 6.15 6.15h24.79V4.07l.14-.12c.88-.73 1.99-1.13 3.13-1.13a4.733 4.733 0 014.8 4.66 4.733 4.733 0 01-4.8 4.66c-.54 0-1.07-.09-1.58-.26v3.13h9.65V6.16c0-3.4-2.76-6.16-6.16-6.16zM9.35 11.25c-.78.52-1.7.79-2.64.75-.87.02-1.74-.13-2.55-.44l.21-1.51c.71.34 1.48.51 2.26.51.48.02.95-.09 1.37-.32.31-.18.5-.51.48-.87 0-.86-1.3-1.1-2.41-1.64-1-.32-1.69-1.22-1.73-2.26-.03-.7.28-1.37.82-1.81.71-.53 1.59-.8 2.48-.75.82-.01 1.64.17 2.38.53L9.8 4.85a5.01 5.01 0 00-2.05-.48c-.4-.02-.79.07-1.13.27-.26.16-.41.44-.4.74 0 .86 1.3 1.1 2.45 1.63.97.28 1.66 1.16 1.69 2.17.03.82-.35 1.59-1.01 2.07zm15.86.85c-2.56 0-4.64-2.08-4.64-4.64s2.08-4.64 4.64-4.64c2.56 0 4.64 2.08 4.64 4.64.01 2.56-2.07 4.64-4.64 4.64z" fill="#FF0059"></path></g>
                          </svg>